# xmcd
#
# Track frame offsets: 
#        150
#        25019
#        44468
#        70766
#        94446
#        117902
#        144691
#        163658
#        179183
#        210062
#        239576
#
# Disc length: 3324 seconds
#
# Revision: 0
# Processed by: cddbd v1.5.2PL0 Copyright (c) Steve Scherf et al.
# Submitted via: ExactAudioCopyFreeDBPlugin 1.0
#
DISCID=9e0cfa0b
DTITLE=Simon Curphey - With You (Australian Relese)
DYEAR=2012
DGENRE=
TTITLE0=With You
TTITLE1=Your're Beautiful
TTITLE2=Message to the World
TTITLE3=Gone
TTITLE4=Everybody Knows
TTITLE5=Too Much
TTITLE6=Sally
TTITLE7=Open Up
TTITLE8=Just a Little Bit More
TTITLE9=Sailor
TTITLE10=Endings
EXTD=
EXTT0=
EXTT1=
EXTT2=
EXTT3=
EXTT4=
EXTT5=
EXTT6=
EXTT7=
EXTT8=
EXTT9=
EXTT10=
PLAYORDER=
